<svg xmlns="http://www.w3.org/2000/svg" xmlns:xlink="http://www.w3.org/1999/xlink" id="processonSvg1000" viewBox="149.33333333333346 120.33333333333348 297.6666666666664 440.7777777777775" width="297.6666666666664" height="440.7777777777775"><defs id="ProcessOnDefs1001"><marker id="ProcessOnMarker1016" markerUnits="userSpaceOnUse" orient="auto" markerWidth="16.23606797749979" markerHeight="10.550836550532098" viewBox="-1.0 -1.3763819204711736 16.23606797749979 10.550836550532098" refX="-1.0" refY="3.8990363547948754"><path id="ProcessOnPath1017" d="M12.0 3.8990363547948754L0.0 7.798072709589751V0.0Z" stroke="#323232" stroke-width="2.0" fill="#323232" transform="matrix(1.0,0.0,0.0,1.0,0.0,0.0)"/></marker><marker id="ProcessOnMarker1020" markerUnits="userSpaceOnUse" orient="auto" markerWidth="16.23606797749979" markerHeight="10.550836550532098" viewBox="-1.0 -1.3763819204711736 16.23606797749979 10.550836550532098" refX="-1.0" refY="3.8990363547948754"><path id="ProcessOnPath1021" d="M12.0 3.8990363547948754L0.0 7.798072709589751V0.0Z" stroke="#323232" stroke-width="2.0" fill="#323232" transform="matrix(1.0,0.0,0.0,1.0,0.0,0.0)"/></marker><marker id="ProcessOnMarker1035" markerUnits="userSpaceOnUse" orient="auto" markerWidth="16.23606797749979" markerHeight="10.550836550532098" viewBox="-1.0 -1.3763819204711736 16.23606797749979 10.550836550532098" refX="-1.0" refY="3.8990363547948754"><path id="ProcessOnPath1036" d="M12.0 3.8990363547948754L0.0 7.798072709589751V0.0Z" stroke="#323232" stroke-width="2.0" fill="#323232" transform="matrix(1.0,0.0,0.0,1.0,0.0,0.0)"/></marker><marker id="ProcessOnMarker1046" markerUnits="userSpaceOnUse" orient="auto" markerWidth="16.23606797749979" markerHeight="10.550836550532098" viewBox="-1.0 -1.3763819204711736 16.23606797749979 10.550836550532098" refX="-1.0" refY="3.8990363547948754"><path id="ProcessOnPath1047" d="M12.0 3.8990363547948754L0.0 7.798072709589751V0.0Z" stroke="#323232" stroke-width="2.0" fill="#323232" transform="matrix(1.0,0.0,0.0,1.0,0.0,0.0)"/></marker><marker id="ProcessOnMarker1050" markerUnits="userSpaceOnUse" orient="auto" markerWidth="16.23606797749979" markerHeight="10.550836550532098" viewBox="-1.0 -1.3763819204711736 16.23606797749979 10.550836550532098" refX="-1.0" refY="3.8990363547948754"><path id="ProcessOnPath1051" d="M12.0 3.8990363547948754L0.0 7.798072709589751V0.0Z" stroke="#323232" stroke-width="2.0" fill="#323232" transform="matrix(1.0,0.0,0.0,1.0,0.0,0.0)"/></marker></defs><g id="ProcessOnG1002"><path id="ProcessOnPath1003" d="M149.33333333333346 120.33333333333348H446.9999999999999V561.111111111111H149.33333333333348V120.33333333333348Z" fill="none"/><g id="ProcessOnG1004"><g id="ProcessOnG1005" transform="matrix(1.0,0.0,0.0,1.0,169.33333333333346,140.33333333333348)" opacity="1.0"><path id="ProcessOnPath1006" d="M0.0 0.0L157.3333333333332 0.0L157.3333333333332 28.999999999999815L0.0 28.999999999999815Z" stroke="#323232" stroke-width="2.0" stroke-dasharray="none" opacity="1.0" fill="#ffffff"/><g id="ProcessOnG1007" transform="matrix(1.0,0.0,0.0,1.0,10.0,6.374999999999908)"><text id="ProcessOnText1008" fill="#000000" font-size="13" x="67.6666666666666" y="13.325" font-family="微软雅黑" font-weight="normal" font-style="normal" text-decoration="none" family="微软雅黑" text-anchor="middle" size="13">componentDidMount</text></g></g><g id="ProcessOnG1009" transform="matrix(1.0,0.0,0.0,1.0,188.0,213.66666666666677)" opacity="1.0"><path id="ProcessOnPath1010" d="M0.0 40.0L60.0 0.0L120.0 40.0L60.0 80.0Z" stroke="#323232" stroke-width="2.0" stroke-dasharray="none" opacity="1.0" fill="#ffffff"/><g id="ProcessOnG1011" transform="matrix(1.0,0.0,0.0,1.0,10.0,24.15)"><text id="ProcessOnText1012" fill="#000000" font-size="13" x="49.0" y="13.325" font-family="微软雅黑" font-weight="normal" font-style="normal" text-decoration="none" family="微软雅黑" text-anchor="middle" size="13">判断localStorag</text><text id="ProcessOnText1013" fill="#000000" font-size="13" x="49.0" y="29.575" font-family="微软雅黑" font-weight="normal" font-style="normal" text-decoration="none" family="微软雅黑" text-anchor="middle" size="13">e</text></g></g><g id="ProcessOnG1014"><path id="ProcessOnPath1015" d="M247.99999999999997 169.33333333333303L247.99999999999997 191.4999999999999L248.0 191.4999999999999L248.0 198.43059868916697" stroke="#323232" stroke-width="2.0" stroke-dasharray="none" fill="none" marker-end="url(#ProcessOnMarker1016)"/></g><g id="ProcessOnG1018"><path id="ProcessOnPath1019" d="M308.0 253.66666666666657L387.9999999999999 253.66666666666657L387.9999999999999 484.3333333333343L247.75642144729184 484.3333333333343L247.75642144729184 499.0972653558345" stroke="#323232" stroke-width="2.0" stroke-dasharray="none" fill="none" marker-end="url(#ProcessOnMarker1020)"/><g id="ProcessOnG1022" transform="matrix(1.0,0.0,0.0,1.0,387.9999999999999,398.3787552876046)"><path id="ProcessOnPath1023" d="M0 0H78.0V16.25H0Z" fill="#fff" transform="matrix(1.0,0.0,0.0,1.0,-39.0,0.0)"/><text id="ProcessOnText1024" fill="#000000" font-size="13" x="0.0" y="13.325" font-family="微软雅黑" font-weight="normal" font-style="normal" text-decoration="none" family="微软雅黑" text-anchor="middle" size="13">处于倒计时中</text></g></g><g id="ProcessOnG1025" transform="matrix(1.0,0.0,0.0,1.0,200.45111449952233,514.3333333333343)" opacity="1.0"><path id="ProcessOnPath1026" d="M0.0 0.0L94.6106138955393 0.0L94.6106138955393 26.77777777777669L0.0 26.77777777777669Z" stroke="#323232" stroke-width="2.0" stroke-dasharray="none" opacity="1.0" fill="#ffffff"/><g id="ProcessOnG1027" transform="matrix(1.0,0.0,0.0,1.0,10.0,5.263888888888346)"><text id="ProcessOnText1028" fill="#000000" font-size="13" x="36.30530694776965" y="13.325" font-family="微软雅黑" font-weight="normal" font-style="normal" text-decoration="none" family="微软雅黑" text-anchor="middle" size="13">倒计时</text></g></g><g id="ProcessOnG1029" transform="matrix(1.0,0.0,0.0,1.0,197.8519534623788,357.8888888888894)" opacity="1.0"><path id="ProcessOnPath1030" d="M0.0 0.0L99.99999999999955 0.0L99.99999999999955 23.777777777776635L0.0 23.777777777776635Z" stroke="#323232" stroke-width="2.0" stroke-dasharray="none" opacity="1.0" fill="#ffffff"/><g id="ProcessOnG1031" transform="matrix(1.0,0.0,0.0,1.0,10.0,3.7638888888883173)"><text id="ProcessOnText1032" fill="#000000" font-size="13" x="38.99999999999977" y="13.325" font-family="微软雅黑" font-weight="normal" font-style="normal" text-decoration="none" family="微软雅黑" text-anchor="middle" size="13">正常显示</text></g></g><g id="ProcessOnG1033"><path id="ProcessOnPath1034" d="M248.0 293.66666666666646L248.0 325.77777777777794L247.85195346237856 325.77777777777794L247.85195346237856 342.65282091138965" stroke="#323232" stroke-width="2.0" stroke-dasharray="none" fill="none" marker-end="url(#ProcessOnMarker1035)"/><g id="ProcessOnG1037" transform="matrix(1.0,0.0,0.0,1.0,248.0,310.1087670578388)"><path id="ProcessOnPath1038" d="M0 0H78.0V16.25H0Z" fill="#fff" transform="matrix(1.0,0.0,0.0,1.0,-39.0,0.0)"/><text id="ProcessOnText1039" fill="#000000" font-size="13" x="0.0" y="13.325" font-family="微软雅黑" font-weight="normal" font-style="normal" text-decoration="none" family="微软雅黑" text-anchor="middle" size="13">倒计时已过期</text></g></g><g id="ProcessOnG1040" transform="matrix(1.0,0.0,0.0,1.0,196.02464619779042,427.22222222222257)" opacity="1.0"><path id="ProcessOnPath1041" d="M0.0 0.0L103.65461452917629 0.0L103.65461452917629 26.6666666666664L0.0 26.6666666666664Z" stroke="#323232" stroke-width="2.0" stroke-dasharray="none" opacity="1.0" fill="#ffffff"/><g id="ProcessOnG1042" transform="matrix(1.0,0.0,0.0,1.0,10.0,5.208333333333201)"><text id="ProcessOnText1043" fill="#000000" font-size="13" x="40.82730726458814" y="13.325" font-family="微软雅黑" font-weight="normal" font-style="normal" text-decoration="none" family="微软雅黑" text-anchor="middle" size="13">用户请求</text></g></g><g id="ProcessOnG1044"><path id="ProcessOnPath1045" d="M247.85195346237856 381.66666666666606L247.85195346237856 404.44444444444434L247.85195346237856 404.44444444444434L247.85195346237856 411.9861542447228" stroke="#323232" stroke-width="2.0" stroke-dasharray="none" fill="none" marker-end="url(#ProcessOnMarker1046)"/></g><g id="ProcessOnG1048"><path id="ProcessOnPath1049" d="M247.85195346237856 453.88888888888897L247.85195346237856 484.11111111111165L247.75642144729198 484.11111111111165L247.75642144729198 499.0972653558345" stroke="#323232" stroke-width="2.0" stroke-dasharray="none" fill="none" marker-end="url(#ProcessOnMarker1050)"/></g></g></g></svg>